<svg width="30" height="30" viewBox="0 0 30 30" fill="none" xmlns="http://www.w3.org/2000/svg">
<path fill-rule="evenodd" clip-rule="evenodd" d="M24.7822 14.1366C25.2896 14.9005 25.5807 15.7856 25.625 16.6993L25.5917 16.9303C25.63 18.1806 25.2126 19.4028 24.4162 20.3729C23.3991 21.4703 22.0087 22.1559 20.5125 22.2976C16.8271 22.7022 13.1079 22.7022 9.42249 22.2976C7.94818 22.1462 6.58196 21.4609 5.58534 20.3729C4.77577 19.4167 4.34593 18.2004 4.37653 16.9523V16.7983C4.4375 15.8572 4.75151 14.9496 5.28591 14.1696L5.37463 14.0596C5.9304 13.4342 6.31257 12.6761 6.48363 11.8599V10.914V9.59415C6.64089 9.19681 7.047 8.95315 7.47486 8.99945C7.90272 9.04574 8.24631 9.3705 8.31348 9.79212V10.892V12.0579C8.3178 12.0981 8.3178 12.1386 8.31348 12.1788C8.08257 13.3135 7.55477 14.368 6.78306 15.2365C6.48587 15.706 6.31765 16.2444 6.2951 16.7983V17.0403C6.27048 17.8193 6.53041 18.5809 7.02704 19.185C7.71558 19.8903 8.63633 20.3274 9.62211 20.4168C13.19 20.8018 16.7894 20.8018 20.3572 20.4168C21.3699 20.3247 22.3132 19.8667 23.0078 19.13C23.48 18.5402 23.7274 17.8041 23.7064 17.0513V16.7983C23.6837 16.2425 23.5196 15.7015 23.2296 15.2255C22.4257 14.3669 21.8669 13.3115 21.6104 12.1678C21.6061 12.1276 21.6061 12.0871 21.6104 12.0469V10.87V9.77013C21.2888 6.44853 17.9507 4.39177 15.0451 4.39177C13.8098 4.38896 12.5948 4.70346 11.5185 5.30466C11.2205 5.48235 10.8485 5.48508 10.5479 5.31179C10.2472 5.1385 10.0655 4.81666 10.0736 4.47188C10.0818 4.1271 10.2785 3.81403 10.5869 3.65486C11.9207 2.90759 13.4246 2.5101 14.9564 2.5C18.7935 2.5 23.0965 5.20568 23.5844 9.55015V10.848V11.8159C23.751 12.6336 24.1338 13.3928 24.6934 14.0156C24.7266 14.0532 24.7563 14.0937 24.7822 14.1366ZM15.3144 25.5385C15.9661 25.4414 16.5518 25.0904 16.9415 24.5634H16.9526C17.2895 24.1594 17.8927 24.1028 18.3 24.4369C18.7073 24.771 18.7644 25.3693 18.4276 25.7732C17.5971 26.8502 16.3123 27.4873 14.9453 27.5C13.5822 27.4839 12.3022 26.8472 11.4741 25.7732C11.1373 25.3693 11.1944 24.771 11.6017 24.4369C12.009 24.1028 12.6122 24.1594 12.9491 24.5634C13.0971 24.7595 13.2726 24.9336 13.4703 25.0803C13.9989 25.4706 14.6627 25.6355 15.3144 25.5385Z" fill="white"/>
<circle cx="3.5" cy="3.5" r="3.5" fill="#D85B5B"/>
</svg>
