<svg width="21" height="20" viewBox="0 0 21 20" fill="none" xmlns="http://www.w3.org/2000/svg">
<path fill-rule="evenodd" clip-rule="evenodd" d="M10.4772 16.9735C7.778 16.9735 5.47217 16.5652 5.47217 14.9302C5.47217 13.2952 7.763 11.8718 10.4772 11.8718C13.1763 11.8718 15.4822 13.2818 15.4822 14.916C15.4822 16.5502 13.1913 16.9735 10.4772 16.9735Z" stroke="white" stroke-width="1.5" stroke-linecap="round" stroke-linejoin="round"/>
<path fill-rule="evenodd" clip-rule="evenodd" d="M10.4771 9.54059C12.2488 9.54059 13.6855 8.10476 13.6855 6.33309C13.6855 4.56142 12.2488 3.12476 10.4771 3.12476C8.70548 3.12476 7.26881 4.56142 7.26881 6.33309C7.26381 8.09809 8.68881 9.53476 10.4546 9.54059H10.4771Z" stroke="white" stroke-width="1.5" stroke-linecap="round" stroke-linejoin="round"/>
<path d="M15.8019 8.65965C16.8327 8.38382 17.5927 7.44382 17.5927 6.32465C17.5927 5.15715 16.7652 4.18215 15.6636 3.95715" stroke="white" stroke-width="1.5" stroke-linecap="round" stroke-linejoin="round"/>
<path d="M16.2861 11.287C17.7478 11.287 18.9961 12.2778 18.9961 13.1628C18.9961 13.6837 18.5653 14.2512 17.912 14.4045" stroke="white" stroke-width="1.5" stroke-linecap="round" stroke-linejoin="round"/>
<path d="M5.15324 8.65965C4.12157 8.38382 3.36157 7.44382 3.36157 6.32465C3.36157 5.15715 4.18991 4.18215 5.29074 3.95715" stroke="white" stroke-width="1.5" stroke-linecap="round" stroke-linejoin="round"/>
<path d="M4.66825 11.287C3.20659 11.287 1.95825 12.2778 1.95825 13.1628C1.95825 13.6837 2.38909 14.2512 3.04325 14.4045" stroke="white" stroke-width="1.5" stroke-linecap="round" stroke-linejoin="round"/>
</svg>
